<svg width="24" height="21" viewBox="0 0 24 21" fill="none" xmlns="http://www.w3.org/2000/svg">
<path d="M8.74782 20.25H7.50001C7.37463 20.25 7.25126 20.2185 7.14118 20.1585C7.03111 20.0984 6.93783 20.0118 6.8699 19.9064C6.80196 19.801 6.76153 19.6803 6.75229 19.5552C6.74306 19.4302 6.76532 19.3048 6.81704 19.1906L9.8386 12.5227L5.30157 12.4219L3.64688 14.4267C3.33141 14.8233 3.07969 15 2.43751 15H1.59751C1.46451 15.0043 1.33244 14.9764 1.21249 14.9188C1.09254 14.8612 0.988245 14.7755 0.908444 14.6691C0.796881 14.5186 0.687194 14.2636 0.794069 13.8998L1.72313 10.5717C1.73016 10.5469 1.7386 10.522 1.74798 10.4977C1.74844 10.4953 1.74844 10.4929 1.74798 10.4906C1.73829 10.4663 1.73 10.4414 1.72313 10.4161L0.793132 7.06687C0.69235 6.71016 0.802507 6.46078 0.913132 6.31406C0.987417 6.21549 1.08379 6.13573 1.19451 6.08118C1.30524 6.02664 1.42721 5.99883 1.55063 6H2.43751C2.91704 6 3.38251 6.21516 3.65626 6.5625L5.27673 8.53359L9.8386 8.46609L6.81798 1.80984C6.76618 1.69568 6.74384 1.57036 6.75298 1.44533C6.76211 1.3203 6.80245 1.19956 6.87029 1.09414C6.93813 0.988715 7.03131 0.901982 7.14132 0.841864C7.25132 0.781747 7.37464 0.750163 7.50001 0.75H8.76141C8.93739 0.753536 9.11032 0.79667 9.26734 0.876197C9.42437 0.955724 9.56146 1.0696 9.66844 1.20937L15.5302 8.33438L18.2381 8.26312C18.4364 8.25234 18.9858 8.24859 19.1128 8.24859C21.7031 8.25 23.25 9.09094 23.25 10.5C23.25 10.9434 23.0728 11.7656 21.8874 12.2887C21.1875 12.5981 20.2538 12.7547 19.1119 12.7547C18.9863 12.7547 18.4383 12.7509 18.2372 12.7402L15.5297 12.668L9.65344 19.793C9.54637 19.9321 9.4094 20.0454 9.25265 20.1246C9.09589 20.2037 8.92337 20.2465 8.74782 20.25Z" fill="black" fill-opacity="0.8"/>
</svg>
